<?xml version="1.0" encoding="UTF-8"?>
<svg xmlns="http://www.w3.org/2000/svg" width="32" height="32" viewBox="0 0 32 32">
  <g id="a" data-name="Layer 1">
    <g id="b" data-name="Style 2">
      <g>
        <path d="M16,31.625C7.384,31.625.375,24.615.375,16S7.384.375,16,.375s15.625,7.009,15.625,15.625-7.01,15.625-15.625,15.625Z" style="fill: #fff;"/>
        <path d="M16,.75c8.409,0,15.25,6.841,15.25,15.25s-6.841,15.25-15.25,15.25S.75,24.409.75,16,7.591.75,16,.75M16,0C7.163,0,0,7.163,0,16s7.163,16,16,16,16-7.164,16-16S24.837,0,16,0h0Z" style="fill: #e5e5e5;"/>
      </g>
    </g>
  </g>
  <g id="c" data-name="Layer 2">
    <path d="M14.368,20.255c-2.728-.331-4.649-2.294-4.649-4.835,0-1.033.372-2.149.992-2.893-.269-.682-.227-2.128.083-2.727.827-.103,1.942.331,2.604.93.785-.248,1.612-.372,2.624-.372s1.839.124,2.583.351c.641-.579,1.777-1.012,2.604-.909.289.558.331,2.004.062,2.707.661.785,1.012,1.839,1.012,2.913,0,2.542-1.922,4.463-4.69,4.814.703.455,1.178,1.446,1.178,2.583v2.149c0,.62.517.971,1.136.723,3.74-1.426,6.674-5.166,6.674-9.794,0-5.848-4.752-10.621-10.6-10.621S5.421,10.047,5.421,15.895c0,4.587,2.913,8.389,6.839,9.815.558.207,1.095-.165,1.095-.723v-1.653c-.289.124-.661.207-.992.207-1.364,0-2.17-.744-2.748-2.128-.227-.558-.475-.888-.95-.95-.248-.021-.331-.124-.331-.248,0-.248.413-.434.827-.434.599,0,1.116.372,1.653,1.136.413.599.847.868,1.364.868s.847-.186,1.322-.661c.351-.351.62-.661.868-.868Z" style="fill: #333;"/>
  </g>
</svg>