<?xml version="1.0" encoding="UTF-8"?><svg id="a" xmlns="http://www.w3.org/2000/svg" width="32" height="32" viewBox="0 0 32 32"><g id="b"><path d="m16,31.625C7.384,31.625.375,24.615.375,16S7.384.375,16,.375s15.625,7.009,15.625,15.625-7.01,15.625-15.625,15.625Z" style="fill:#fff; stroke-width:0px;"/><path d="m16,.75c8.409,0,15.25,6.841,15.25,15.25s-6.841,15.25-15.25,15.25S.75,24.409.75,16,7.591.75,16,.75m0-.75C7.163,0,0,7.163,0,16s7.163,16,16,16,16-7.164,16-16S24.837,0,16,0h0Z" style="fill:#e5e5e5; stroke-width:0px;"/><path d="m22.33,7.692h-12.66c-1.092,0-1.978.886-1.978,1.978v12.66c0,1.092.886,1.978,1.978,1.978h12.66c1.092,0,1.978-.886,1.978-1.978v-12.66c0-1.092-.886-1.978-1.978-1.978Zm-9.495,6.33v7.517h-2.374v-7.517h2.374Zm-2.374-2.188c0-.554.475-.977,1.187-.977s1.159.423,1.187.977c0,.554-.443,1.001-1.187,1.001-.712,0-1.187-.447-1.187-1.001Zm11.078,9.705h-2.374v-3.956c0-.791-.396-1.583-1.385-1.598h-.032c-.957,0-1.353.815-1.353,1.598v3.956h-2.374v-7.517h2.374v1.013s.764-1.013,2.299-1.013c1.571,0,2.845,1.08,2.845,3.268v4.249Z" style="fill:#333; stroke-width:0px;"/></g></svg>